<svg width="278" height="241" viewBox="0 0 278 241" fill="none" xmlns="http://www.w3.org/2000/svg">
<path fill-rule="evenodd" clip-rule="evenodd" d="M270.815 126.688L207.348 231.762C205 235.65 200.793 238.03 196.251 238.041L78.4554 238.316C73.811 238.327 69.5135 235.859 67.1819 231.843L6.35787 127.059C4.02623 123.042 4.01464 118.086 6.32747 114.059L66.6608 8.99178C68.9736 4.96415 73.2595 2.47632 77.9039 2.46546L195.7 2.19001C200.242 2.17939 204.46 4.53998 206.826 8.41672L212.255 17.3107C213.133 17.4259 214.004 17.5726 214.867 17.7504L208.533 7.37468C205.803 2.90152 200.936 0.177758 195.695 0.190013L77.8992 0.465469C72.5402 0.478001 67.595 3.34857 64.9264 7.99583L4.59308 113.063C1.92443 117.71 1.9378 123.428 4.62815 128.063L65.4522 232.847C68.1425 237.481 73.1011 240.329 78.4601 240.316L196.256 240.041C201.497 240.028 206.351 237.282 209.06 232.796L272.527 127.722C275.421 122.931 275.407 116.928 272.491 112.151L242.662 63.2855C242.426 64.1347 242.158 64.9766 241.86 65.8095L270.784 113.193C273.311 117.333 273.323 122.536 270.815 126.688Z" fill="#06295F"/>
<path d="M186.787 32.7748C182.592 36.9713 179.733 42.318 178.577 48.1388C177.419 53.9595 178.013 59.993 180.284 65.4761C182.554 70.9591 186.399 75.6456 191.332 78.9428C196.266 82.2401 202.066 84 207.999 84C213.934 84 219.734 82.2401 224.668 78.9428C229.601 75.6456 233.446 70.9591 235.716 65.4761C237.987 59.993 238.581 53.9595 237.423 48.1388C236.267 42.318 233.408 36.9713 229.213 32.7748C223.583 27.1557 215.954 24 207.999 24C200.046 24 192.417 27.1557 186.787 32.7748Z" fill="#FEE856"/>
<path fill-rule="evenodd" clip-rule="evenodd" d="M171.702 47.3689C173.109 40.2869 176.587 33.7817 181.691 28.676C183.684 26.6863 185.884 24.9504 188.24 23.4892C185.814 21.8976 182.941 21.0192 179.953 21.0306L89.6458 21.374C84.2947 21.3944 79.3597 24.2638 76.695 28.9043L27.5479 114.491C24.8793 119.138 24.8926 124.856 27.583 129.491L77.1224 214.834C79.8128 219.469 84.7713 222.317 90.1303 222.304L186.029 222.08C191.27 222.067 196.124 219.321 198.834 214.835L250.301 129.627C253.311 124.643 253.166 118.367 249.927 113.528L229.773 83.4153C229.126 83.9137 228.462 84.3913 227.78 84.8471C221.776 88.8588 214.72 91 207.5 91C200.281 91 193.224 88.8588 187.221 84.8471C181.219 80.8355 176.542 75.1336 173.779 68.4626C171.016 61.7915 170.293 54.4508 171.702 47.3689Z" fill="white"/>
<path fill-rule="evenodd" clip-rule="evenodd" d="M171.705 47.3689C173.118 40.2869 176.611 33.7817 181.738 28.676C183.763 26.6641 185.999 24.9118 188.395 23.4405C185.974 21.8602 183.112 20.9886 180.136 20.9999L89.3164 21.3437C83.9755 21.364 79.0483 24.2225 76.3798 28.849L27.0153 114.436C24.3275 119.096 24.341 124.838 27.0506 129.485L76.8093 214.829C79.5034 219.449 84.4541 222.286 89.8029 222.274L186.24 222.049C191.471 222.037 196.317 219.301 199.03 214.83L250.724 129.623C253.755 124.626 253.609 118.324 250.348 113.474L230.105 83.3601C229.432 83.8785 228.741 84.3745 228.031 84.8471C222.001 88.8588 214.913 91 207.661 91C203.96 91 200.302 90.4422 196.805 89.3625L175.605 102.929L175.626 102.97L173.833 106.399L187.068 127.081L187.115 126.987L191.985 126.976L193.263 129.391L222.645 110.97L223.176 111.817L193.732 130.277L194.626 131.97L192.634 135.78L205.529 155.929L204.686 156.468L192.1 136.801L192.009 136.976L187.138 136.987L186.153 135.029L163.259 149.382L164.628 151.969L163.619 153.899L181.763 182.254L177.552 184.949L159.654 156.981L157.139 156.987L155.699 154.122L129.781 170.371L130.626 171.969L128.958 175.16L143.529 197.929L142.686 198.468L128.424 176.181L128.009 176.976L123.138 176.987L122.201 175.124L105.146 185.817L104.615 184.97L121.75 174.227L120.627 171.993L122.864 167.492L110.173 147.661L110.009 147.976L105.194 147.987L75.3098 167.111L72.6147 162.899L102.893 143.523L102.627 142.993L104.62 138.983L89.1204 114.762L89.0089 114.976L84.1382 114.987L83.3795 113.478L64.1547 125.811L63.6147 124.97L82.9277 112.58L81.6265 109.993L83.5683 106.086L72.6147 88.9695L73.457 88.4305L84.0874 105.042L84.1148 104.987L88.9855 104.976L90.4538 107.752L115.483 91.6958L114.627 89.9929L115.571 88.093L88.6148 45.9695L92.8263 43.2745L119.516 84.9814L121.985 84.9757L122.992 86.8787L145.77 72.2666L144.626 69.9929L146.691 65.8402L134.615 46.9695L135.457 46.4305L147.332 64.9865L151.985 64.9757L153.29 67.4424L171.034 56.0597C170.909 53.1615 171.13 50.2439 171.705 47.3689ZM171.101 57.2044L153.759 68.3295L154.626 69.9695L152.78 73.5006L168.449 97.9863L172.985 97.9757L173.259 98.4938L191.113 87.069C189.8 86.408 188.524 85.6665 187.293 84.8471C181.264 80.8355 176.566 75.1336 173.791 68.4626C172.291 64.8566 171.389 61.055 171.101 57.2044ZM155.247 153.225L129.313 169.485L127.985 166.976L123.727 166.986L110.707 146.64L112.421 143.362L138.107 126.925L138.138 126.987L140.457 126.982L155.43 150.379L154.628 151.993L155.247 153.225ZM159.192 146.982L144.529 124.069L145.514 122.185L168.032 107.775L168.138 107.987L173.009 107.976L173.299 107.42L186.549 128.125L184.626 131.993L185.702 134.131L162.791 148.496L161.987 146.976L159.192 146.982ZM135.848 122.434L110.384 138.73L109.985 137.976L105.17 137.987L89.6542 113.741L91.6265 109.97L90.923 108.639L115.935 92.5941L117.138 94.987L119.978 94.9804L136.343 120.552L135.627 121.993L135.848 122.434ZM143.338 117.642L142.985 116.976L139.994 116.983L123.764 91.6195L124.626 89.9695L123.461 87.7659L146.222 73.1648L147.138 74.987L152.009 74.9756L152.246 74.5216L167.742 98.7367L165.626 102.993L165.773 103.284L143.338 117.642Z" fill="#2A5392"/>
</svg>
